ffmpeg started on 2025-06-19 at 19:12:27
Report written to "D:\Convert\FFMetrics\reports\ssim_report-6.txt"
Log level: 32
Command line:
ffmpeg -hide_banner -nostdin -i "G:\\\xc0\xed\xe8\xec\xe5\\[\xcf\xf0\xee\xf1\xec\xee\xf2\xf0\xe5\xed\xee]\\\xc0\xea\xe0\xe4\xe5\xec\xe8\xff \xc4\xf0\xe0\xea\xee\xed\xfc\xe8\xf5 \xcd\xe0\xe5\xe7\xe4\xed\xe8\xea\xee\xe2\\[AniDub]_Seikoku_no_Dragonar_[05]_[720p_x264_Aac]_[Simbad_and_Holly]_HEVC.mkv" -i "G:\\\xc0\xed\xe8\xec\xe5\\[\xcf\xf0\xee\xf1\xec\xee\xf2\xf0\xe5\xed\xee]\\\xc0\xea\xe0\xe4\xe5\xec\xe8\xff \xc4\xf0\xe0\xea\xee\xed\xfc\xe8\xf5 \xcd\xe0\xe5\xe7\xe4\xed\xe8\xea\xee\xe2\\[AniDub]_Seikoku_no_Dragonar_[05]_[720p_x264_Aac]_[Simbad_and_Holly].mp4" -lavfi "[0:v]settb=AVTB,setpts=PTS-STARTPTS,format=pix_fmts=yuv420p10,fps=24000/1001,scale=1280:720:flags=bicubic[main];[1:v]settb=AVTB,setpts=PTS-STARTPTS,format=pix_fmts=yuv420p,fps=24000/1001,scale=1280:720:flags=bicubic[ref];[main][ref]ssim=eof_action=endall:stats_file='D\\:/Convert/FFMetrics/logs/ssim_logfile-6.txt'" -f null -
Input #0, matroska,webm, from 'G:\Аниме\[Просмотрено]\Академия Драконьих Наездников\[AniDub]_Seikoku_no_Dragonar_[05]_[720p_x264_Aac]_[Simbad_and_Holly]_HEVC.mkv':
  Metadata:
    COMPATIBLE_BRANDS: isom
    MAJOR_BRAND     : isom
    MINOR_VERSION   : 1
    ENCODER         : Lavf61.7.100
  Duration: 00:25:07.05, start: -0.021000, bitrate: 916 kb/s
  Stream #0:0: Video: hevc (Main 10), yuv420p10le(tv, bt709, progressive), 1280x720 [SAR 1:1 DAR 16:9], 23.98 fps, 23.98 tbr, 1k tbn (default)
      Metadata:
        HANDLER_NAME    : 264
        VENDOR_ID       : [0][0][0][0]
        ENCODER         : Lavc61.19.100 libx265
        BPS             : 718826
        DURATION        : 00:25:06.922708333
        NUMBER_OF_FRAMES: 36130
        NUMBER_OF_BYTES : 135401846
        _STATISTICS_WRITING_APP: mkvpropedit v66.0.0 ('Josie') 64-bit
        _STATISTICS_WRITING_DATE_UTC: 2025-06-19 14:45:55
        _STATISTICS_TAGS: BPS DURATION NUMBER_OF_FRAMES NUMBER_OF_BYTES
  Stream #0:1(rus): Audio: aac (LC), 48000 Hz, stereo, fltp (default)
      Metadata:
        HANDLER_NAME    : GPAC ISO Audio Handler
        VENDOR_ID       : [0][0][0][0]
        ENCODER         : Lavc61.19.100 aac
        BPS             : 193626
        DURATION        : 00:25:06.901000000
        NUMBER_OF_FRAMES: 70637
        NUMBER_OF_BYTES : 36472005
        _STATISTICS_WRITING_APP: mkvpropedit v66.0.0 ('Josie') 64-bit
        _STATISTICS_WRITING_DATE_UTC: 2025-06-19 14:45:55
        _STATISTICS_TAGS: BPS DURATION NUMBER_OF_FRAMES NUMBER_OF_BYTES
Input #1, mov,mp4,m4a,3gp,3g2,mj2, from 'G:\Аниме\[Просмотрено]\Академия Драконьих Наездников\[AniDub]_Seikoku_no_Dragonar_[05]_[720p_x264_Aac]_[Simbad_and_Holly].mp4':
  Metadata:
    major_brand     : isom
    minor_version   : 1
    compatible_brands: isom
    creation_time   : 2014-05-31T10:06:26.000000Z
    encoder         : Yamb 2.1.0.0 [http://yamb.unite-video.com]
  Duration: 00:25:07.05, start: 0.000000, bitrate: 1919 kb/s
  Stream #1:0[0x1](und): Video: h264 (High) (avc1 / 0x31637661), yuv420p(tv, bt709, progressive), 1280x720 [SAR 1:1 DAR 16:9], 1723 kb/s, 23.98 fps, 23.98 tbr, 24k tbn (default)
      Metadata:
        creation_time   : 2014-05-03T21:12:44.000000Z
        handler_name    : 264
        vendor_id       : [0][0][0][0]
  Stream #1:1[0x2](rus): Audio: aac (LC) (mp4a / 0x6134706D), 48000 Hz, stereo, fltp, 192 kb/s (default)
      Metadata:
        creation_time   : 2014-05-31T10:06:43.000000Z
        handler_name    : GPAC ISO Audio Handler
        vendor_id       : [0][0][0][0]
Stream mapping:
  Stream #0:0 (hevc) -> settb:default
  Stream #1:0 (h264) -> settb:default
  ssim:default -> Stream #0:0 (wrapped_avframe)
  Stream #0:1 -> #0:1 (aac (native) -> pcm_s16le (native))
Output #0, null, to 'pipe:':
  Metadata:
    COMPATIBLE_BRANDS: isom
    MAJOR_BRAND     : isom
    MINOR_VERSION   : 1
    encoder         : Lavf61.7.100
  Stream #0:0: Video: wrapped_avframe, yuv420p10le(tv, bt709, progressive), 1280x720 [SAR 1:1 DAR 16:9], q=2-31, 200 kb/s, 23.98 fps, 23.98 tbn
      Metadata:
        encoder         : Lavc61.19.100 wrapped_avframe
  Stream #0:1(rus): Audio: pcm_s16le, 48000 Hz, stereo, s16, 1536 kb/s (default)
      Metadata:
        HANDLER_NAME    : GPAC ISO Audio Handler
        VENDOR_ID       : [0][0][0][0]
        _STATISTICS_TAGS: BPS DURATION NUMBER_OF_FRAMES NUMBER_OF_BYTES
        BPS             : 193626
        DURATION        : 00:25:06.901000000
        NUMBER_OF_FRAMES: 70637
        NUMBER_OF_BYTES : 36472005
        _STATISTICS_WRITING_APP: mkvpropedit v66.0.0 ('Josie') 64-bit
        _STATISTICS_WRITING_DATE_UTC: 2025-06-19 14:45:55
        encoder         : Lavc61.19.100 pcm_s16le
frame=  323 fps=0.0 q=-0.0 size=N/A time=00:00:13.47 bitrate=N/A speed=26.3x    frame=  721 fps=693 q=-0.0 size=N/A time=00:00:30.07 bitrate=N/A speed=28.9x    frame=  999 fps=644 q=-0.0 size=N/A time=00:00:41.66 bitrate=N/A speed=26.9x    frame= 1299 fps=630 q=-0.0 size=N/A time=00:00:54.17 bitrate=N/A speed=26.3x    frame= 1674 fps=646 q=-0.0 size=N/A time=00:01:09.81 bitrate=N/A speed=  27x    frame= 2006 fps=647 q=-0.0 size=N/A time=00:01:23.66 bitrate=N/A speed=  27x    frame= 2310 fps=639 q=-0.0 size=N/A time=00:01:36.34 bitrate=N/A speed=26.7x    frame= 2576 fps=625 q=-0.0 size=N/A time=00:01:47.44 bitrate=N/A speed=  26x    frame= 2859 fps=615 q=-0.0 size=N/A time=00:01:59.24 bitrate=N/A speed=25.6x    frame= 3381 fps=655 q=-0.0 size=N/A time=00:02:21.01 bitrate=N/A speed=27.3x    frame= 3828 fps=675 q=-0.0 size=N/A time=00:02:39.65 bitrate=N/A speed=28.1x    frame= 4236 fps=685 q=-0.0 size=N/A time=00:02:56.67 bitrate=N/A speed=28.6x    frame= 4760 fps=709 q=-0.0 size=N/A time=00:03:18.53 bitrate=N/A speed=29.6x    frame= 5287 fps=732 q=-0.0 size=N/A time=00:03:40.51 bitrate=N/A speed=30.5x    frame= 5773 fps=746 q=-0.0 size=N/A time=00:04:00.78 bitrate=N/A speed=31.1x    frame= 6127 fps=743 q=-0.0 size=N/A time=00:04:15.54 bitrate=N/A speed=  31x    frame= 6635 fps=756 q=-0.0 size=N/A time=00:04:36.73 bitrate=N/A speed=31.5x    frame= 7161 fps=771 q=-0.0 size=N/A time=00:04:58.67 bitrate=N/A speed=32.2x    frame= 7654 fps=781 q=-0.0 size=N/A time=00:05:19.23 bitrate=N/A speed=32.6x    frame= 8229 fps=797 q=-0.0 size=N/A time=00:05:43.21 bitrate=N/A speed=33.2x    frame= 8603 fps=794 q=-0.0 size=N/A time=00:05:58.81 bitrate=N/A speed=33.1x    frame= 9194 fps=810 q=-0.0 size=N/A time=00:06:23.46 bitrate=N/A speed=33.8x    frame= 9586 fps=808 q=-0.0 size=N/A time=00:06:39.81 bitrate=N/A speed=33.7x    frame=10102 fps=816 q=-0.0 size=N/A time=00:07:01.33 bitrate=N/A speed=  34x    frame=10660 fps=827 q=-0.0 size=N/A time=00:07:24.61 bitrate=N/A speed=34.5x    frame=11100 fps=828 q=-0.0 size=N/A time=00:07:42.96 bitrate=N/A speed=34.5x    frame=11601 fps=833 q=-0.0 size=N/A time=00:08:03.85 bitrate=N/A speed=34.8x    frame=12062 fps=835 q=-0.0 size=N/A time=00:08:23.08 bitrate=N/A speed=34.8x    frame=12471 fps=834 q=-0.0 size=N/A time=00:08:40.14 bitrate=N/A speed=34.8x    frame=12969 fps=838 q=-0.0 size=N/A time=00:09:00.91 bitrate=N/A speed=  35x    frame=13384 fps=837 q=-0.0 size=N/A time=00:09:18.22 bitrate=N/A speed=34.9x    frame=13856 fps=839 q=-0.0 size=N/A time=00:09:37.91 bitrate=N/A speed=  35x    frame=14288 fps=839 q=-0.0 size=N/A time=00:09:55.92 bitrate=N/A speed=  35x    frame=14763 fps=842 q=-0.0 size=N/A time=00:10:15.74 bitrate=N/A speed=35.1x    frame=15311 fps=848 q=-0.0 size=N/A time=00:10:38.59 bitrate=N/A speed=35.4x    frame=15798 fps=851 q=-0.0 size=N/A time=00:10:58.90 bitrate=N/A speed=35.5x    frame=16283 fps=853 q=-0.0 size=N/A time=00:11:19.13 bitrate=N/A speed=35.6x    frame=16841 fps=860 q=-0.0 size=N/A time=00:11:42.41 bitrate=N/A speed=35.8x    frame=17374 fps=863 q=-0.0 size=N/A time=00:12:04.64 bitrate=N/A speed=  36x    frame=17875 fps=866 q=-0.0 size=N/A time=00:12:25.53 bitrate=N/A speed=36.1x    frame=18377 fps=869 q=-0.0 size=N/A time=00:12:46.47 bitrate=N/A speed=36.3x    frame=18783 fps=867 q=-0.0 size=N/A time=00:13:03.40 bitrate=N/A speed=36.2x    frame=19330 fps=871 q=-0.0 size=N/A time=00:13:26.22 bitrate=N/A speed=36.3x    frame=19744 fps=870 q=-0.0 size=N/A time=00:13:43.48 bitrate=N/A speed=36.3x    frame=20009 fps=862 q=-0.0 size=N/A time=00:13:54.54 bitrate=N/A speed=  36x    frame=20312 fps=856 q=-0.0 size=N/A time=00:14:07.17 bitrate=N/A speed=35.7x    frame=20647 fps=852 q=-0.0 size=N/A time=00:14:21.15 bitrate=N/A speed=35.5x    frame=21183 fps=856 q=-0.0 size=N/A time=00:14:43.50 bitrate=N/A speed=35.7x    frame=21792 fps=862 q=-0.0 size=N/A time=00:15:08.90 bitrate=N/A speed=  36x    frame=22387 fps=868 q=-0.0 size=N/A time=00:15:33.72 bitrate=N/A speed=36.2x    frame=23023 fps=875 q=-0.0 size=N/A time=00:16:00.25 bitrate=N/A speed=36.5x    frame=23681 fps=883 q=-0.0 size=N/A time=00:16:27.69 bitrate=N/A speed=36.8x    frame=24288 fps=889 q=-0.0 size=N/A time=00:16:53.01 bitrate=N/A speed=37.1x    frame=24938 fps=895 q=-0.0 size=N/A time=00:17:20.12 bitrate=N/A speed=37.3x    frame=25582 fps=902 q=-0.0 size=N/A time=00:17:46.98 bitrate=N/A speed=37.6x    frame=26229 fps=908 q=-0.0 size=N/A time=00:18:13.96 bitrate=N/A speed=37.9x    frame=26826 fps=913 q=-0.0 size=N/A time=00:18:38.86 bitrate=N/A speed=38.1x    frame=27313 fps=913 q=-0.0 size=N/A time=00:18:59.17 bitrate=N/A speed=38.1x    frame=27761 fps=912 q=-0.0 size=N/A time=00:19:17.86 bitrate=N/A speed=38.1x    frame=28257 fps=913 q=-0.0 size=N/A time=00:19:38.55 bitrate=N/A speed=38.1x    frame=28813 fps=916 q=-0.0 size=N/A time=00:20:01.74 bitrate=N/A speed=38.2x    frame=29333 fps=917 q=-0.0 size=N/A time=00:20:23.43 bitrate=N/A speed=38.3x    frame=29810 fps=918 q=-0.0 size=N/A time=00:20:43.32 bitrate=N/A speed=38.3x    frame=30224 fps=916 q=-0.0 size=N/A time=00:21:00.59 bitrate=N/A speed=38.2x    frame=30678 fps=915 q=-0.0 size=N/A time=00:21:19.52 bitrate=N/A speed=38.2x    frame=31216 fps=917 q=-0.0 size=N/A time=00:21:41.96 bitrate=N/A speed=38.2x    frame=31758 fps=919 q=-0.0 size=N/A time=00:22:04.57 bitrate=N/A speed=38.3x    frame=32367 fps=923 q=-0.0 size=N/A time=00:22:29.97 bitrate=N/A speed=38.5x    frame=32857 fps=923 q=-0.0 size=N/A time=00:22:50.41 bitrate=N/A speed=38.5x    frame=33305 fps=923 q=-0.0 size=N/A time=00:23:09.09 bitrate=N/A speed=38.5x    frame=33660 fps=919 q=-0.0 size=N/A time=00:23:23.90 bitrate=N/A speed=38.3x    frame=34015 fps=916 q=-0.0 size=N/A time=00:23:38.70 bitrate=N/A speed=38.2x    frame=34354 fps=912 q=-0.0 size=N/A time=00:23:52.84 bitrate=N/A speed=38.1x    frame=34681 fps=909 q=-0.0 size=N/A time=00:24:06.48 bitrate=N/A speed=37.9x    frame=34994 fps=905 q=-0.0 size=N/A time=00:24:19.54 bitrate=N/A speed=37.7x    frame=35317 fps=901 q=-0.0 size=N/A time=00:24:33.01 bitrate=N/A speed=37.6x    frame=35709 fps=899 q=-0.0 size=N/A time=00:24:49.36 bitrate=N/A speed=37.5x    frame=36087 fps=897 q=-0.0 size=N/A time=00:25:05.12 bitrate=N/A speed=37.4x    [Parsed_ssim_10 @ 000002077680bd40] SSIM Y:0.992230 (21.096014) U:0.991984 (20.960218) V:0.992615 (21.316535) All:0.992253 (21.108879)
[out#0/null @ 0000020772194200] video:15525KiB audio:282548KiB subtitle:0KiB other streams:0KiB global headers:0KiB muxing overhead: unknown
frame=36130 fps=898 q=-0.0 Lsize=N/A time=00:25:06.92 bitrate=N/A speed=37.4x    
